<svg xmlns="http://www.w3.org/2000/svg" viewBox="0 0 80 80" width="80" height="80">
  <defs>
    <linearGradient id="pegBg" x1="0%" y1="0%" x2="100%" y2="100%">
      <stop offset="0%" stop-color="#FECACA"/>
      <stop offset="100%" stop-color="#F87171"/>
    </linearGradient>
  </defs>
  <circle cx="40" cy="40" r="38" fill="url(#pegBg)"/>
  <!-- Wall plank -->
  <rect x="14" y="34" width="52" height="4" fill="#92400E"/>
  <rect x="14" y="34" width="52" height="2" fill="#FBBF24" opacity="0.6"/>
  <!-- Pegs (hooks) -->
  <g fill="#FFFFFF" stroke="#7C2D12" stroke-width="1.5">
    <path d="M 22 38 L 22 48 Q 22 54 26 54 L 28 54" fill="none" stroke-linecap="round"/>
    <circle cx="22" cy="40" r="3"/>
  </g>
  <g fill="#FFFFFF" stroke="#7C2D12" stroke-width="1.5">
    <path d="M 40 38 L 40 48 Q 40 54 44 54 L 46 54" fill="none" stroke-linecap="round"/>
    <circle cx="40" cy="40" r="3"/>
  </g>
  <g fill="#FFFFFF" stroke="#7C2D12" stroke-width="1.5">
    <path d="M 58 38 L 58 48 Q 58 54 54 54 L 52 54" fill="none" stroke-linecap="round"/>
    <circle cx="58" cy="40" r="3"/>
  </g>
  <!-- Number tags on pegs -->
  <circle cx="22" cy="62" r="5" fill="#7C3AED"/>
  <text x="22" y="65" text-anchor="middle" font-size="8" font-weight="900" fill="#FFFFFF">1</text>
  <circle cx="40" cy="62" r="5" fill="#7C3AED"/>
  <text x="40" y="65" text-anchor="middle" font-size="8" font-weight="900" fill="#FFFFFF">2</text>
  <circle cx="58" cy="62" r="5" fill="#7C3AED"/>
  <text x="58" y="65" text-anchor="middle" font-size="8" font-weight="900" fill="#FFFFFF">3</text>
</svg>
